<svg xmlns="http://www.w3.org/2000/svg" viewBox="0 0 512 512">
  <path fill="#4CAF50" d="M352,128H160a32,32,0,0,0-32,32V320a32,32,0,0,0,32,32H352a32,32,0,0,0,32-32V160A32,32,0,0,0,352,128ZM184,280a24,24,0,1,1,24-24A24,24,0,0,1,184,280Zm144,0a24,24,0,1,1,24-24A24,24,0,0,1,328,280Z"/>
  <path fill="#388E3C" d="M512,347.9V432c0,8.8-8.2,16-17,16H17c-8.8,0-17-7.2-17-16V347.9c0-8.8,8.2-16,17-16H495C503.8,331.9,512,339.1,512,347.9Z"/>
  <rect fill="#388E3C" x="96" y="432" width="32" height="32" rx="16" ry="16"/>
  <rect fill="#388E3C" x="384" y="432" width="32" height="32" rx="16" ry="16"/>
  <path fill="#388E3C" d="M35,96H477a8,8,0,0,1,8,8v32a8,8,0,0,1-8,8H35a8,8,0,0,1-8-8V104A8,8,0,0,1,35,96Z"/>
  <path fill="#388E3C" d="M384,48H128a32,32,0,0,0-32,32V96H416V80A32,32,0,0,0,384,48Z"/>
</svg>